<?xml version="1.0" encoding="UTF-8" standalone="no"?>
<!-- Generator: Adobe Illustrator 14.0.0, SVG Export Plug-In . SVG Version: 6.00 Build 43363)  -->

<svg
   xmlns:dc="http://purl.org/dc/elements/1.1/"
   xmlns:cc="http://creativecommons.org/ns#"
   xmlns:rdf="http://www.w3.org/1999/02/22-rdf-syntax-ns#"
   xmlns:svg="http://www.w3.org/2000/svg"
   xmlns="http://www.w3.org/2000/svg"
   xmlns:sodipodi="http://sodipodi.sourceforge.net/DTD/sodipodi-0.dtd"
   xmlns:inkscape="http://www.inkscape.org/namespaces/inkscape"
   version="1.1"
   id="Layer_1"
   x="0px"
   y="0px"
   width="411.00064"
   height="60.578819"
   viewBox="0 0 411.00063 60.578821"
   enable-background="new 0 0 425.2 141.73"
   xml:space="preserve"
   inkscape:version="0.48.1 r9760"
   sodipodi:docname="steinwurf_transparent.svg"><metadata
   id="metadata33"><rdf:RDF><cc:Work
       rdf:about=""><dc:format>image/svg+xml</dc:format><dc:type
         rdf:resource="http://purl.org/dc/dcmitype/StillImage" /><dc:title></dc:title></cc:Work></rdf:RDF></metadata><defs
   id="defs31" /><sodipodi:namedview
   pagecolor="#ffffff"
   bordercolor="#666666"
   borderopacity="1"
   objecttolerance="10"
   gridtolerance="10"
   guidetolerance="10"
   inkscape:pageopacity="0"
   inkscape:pageshadow="2"
   inkscape:window-width="1440"
   inkscape:window-height="854"
   id="namedview29"
   showgrid="false"
   inkscape:zoom="3.0856067"
   inkscape:cx="205.80199"
   inkscape:cy="28.140689"
   inkscape:window-x="0"
   inkscape:window-y="24"
   inkscape:window-maximized="1"
   inkscape:current-layer="Layer_1"
   fit-margin-top="0"
   fit-margin-left="0"
   fit-margin-right="0"
   fit-margin-bottom="0" />
<path
   d="M 39.132128,0.99125 C 14.295527,0.554957 -1.8119333,22.34312 0.16337907,34.584995 c 2.26499993,14.043 20.09074993,28.7125 37.96874893,25.5625 26.909999,-4.739 24.852,-31.00575 25.375,-41.34375 -0.738,-11.1489978 -7.3375,-15.7752458 -19.3125,-17.4062459 -1.730687,-0.235937 -3.406727,-0.377163 -5.0625,-0.4062491 z m -6.28125,9.249996 c 2.982,0 5.76775,0.123 8.34375,0.375 2.578,0.254 4.83,0.741999 6.75,1.499999 1.921,0.759 3.413,1.8225 4.5,3.1875 1.087,1.365 1.625,3.1395 1.625,5.3125 l 0,1.21875 c 0,0.405 -0.196,0.75525 -0.625,1.03125 -0.431,0.278 -0.9545,0.40625 -1.5625,0.40625 -0.708,0 -1.28875,-0.13025 -1.71875,-0.40625 -0.429,-0.275 -0.625,-0.63125 -0.625,-1.03125 l 0,-1.125 c 0,-1.354 -0.44725,-2.46575 -1.28125,-3.34375 -0.833,-0.877 -1.9735,-1.56675 -3.4375,-2.09375 -1.467,-0.525 -3.1915,-0.9 -5.1875,-1.125 -1.998,-0.225 -4.1875,-0.34375 -6.5625,-0.34375 -2.426,0 -4.68425,0.072 -6.78125,0.25 -2.098,0.178 -3.88925,0.517 -5.40625,1 -1.516,0.484 -2.742,1.17975 -3.625,2.09375 -0.885,0.914 -1.3125,2.077 -1.3125,3.5 l 0,0.84375 c 0,1.779 0.54625,3.11625 1.65625,4.03125 1.109,0.915 2.7925,1.497 5.0625,1.75 1.814,0.203 3.41925,0.3615 4.78125,0.4375 1.361,0.076 2.98925,0.1375 4.90625,0.1875 1.109,0 2.12325,0.0072 3.03125,0.03125 0.907,0.026 1.79925,0.075 2.65625,0.125 0.856,0.05 1.71175,0.1125 2.59375,0.1875 0.881,0.076 1.888,0.151 3,0.25 1.412,0.151 2.79325,0.42825 4.15625,0.78125 1.361,0.353 2.566,0.895 3.625,1.625 1.06,0.731 1.90125,1.7025 2.53125,2.9375 0.63,1.234 0.96875,2.79125 0.96875,4.65625 l 0,2.09375 c 0,2.115 -0.5285,3.90775 -1.5625,5.34375 -1.035,1.436 -2.5205,2.58675 -4.4375,3.46875 -1.918,0.88 -4.20825,1.48875 -6.90625,1.84375 -2.655,0.345 -5.64675,0.53125 -8.96875,0.53125 -3.027,0 -5.84475,-0.122 -8.46875,-0.375 -2.624,-0.252 -4.93825,-0.741 -6.90625,-1.5 -1.966,-0.759 -3.52225,-1.81725 -4.65625,-3.15625 -1.134,-1.339 -1.6875,-3.10625 -1.6875,-5.28125 l 0,-3.78125 c 0,-1.062 0.76625,-1.59375 2.28125,-1.59375 1.567,0 2.34375,0.53275 2.34375,1.59375 l 0,3.625 c 0,1.416 0.4025,2.589 1.1875,3.5 0.782,0.908 1.91525,1.62525 3.40625,2.15625 1.49,0.531 3.276,0.92825 5.375,1.15625 2.097,0.228 4.423,0.3125 7,0.3125 2.476,0 4.7885,-0.0855 6.9375,-0.3125 2.146,-0.228 4.034,-0.643 5.625,-1.25 1.592,-0.606 2.83575,-1.43275 3.71875,-2.46875 0.884,-1.035 1.3125,-2.382 1.3125,-4 l 0,-1.71875 c 0,-2.323 -0.64225,-3.964 -1.90625,-4.875 -1.264,-0.909 -2.953,-1.496 -5.125,-1.75 -0.91,-0.101 -1.78575,-0.175 -2.59375,-0.25 -0.808,-0.077 -1.641,-0.1375 -2.5,-0.1875 -0.86,-0.051 -1.79625,-0.099 -2.78125,-0.125 -0.986,-0.025 -2.06825,-0.03125 -3.28125,-0.03125 -1.061,0 -2.0045,-0.0052 -2.8125,-0.03125 -0.808,-0.026 -1.592,-0.074 -2.375,-0.125 -0.785,-0.051 -1.59825,-0.1115 -2.40625,-0.1875 -0.808,-0.076 -1.70875,-0.19075 -2.71875,-0.34375 -1.465,-0.203 -2.836,-0.495 -4.125,-0.875 -1.289,-0.38 -2.416,-0.91925 -3.375,-1.65625 -0.961,-0.735 -1.7315,-1.659 -2.3125,-2.75 -0.581,-1.09 -0.875,-2.427 -0.875,-4 l 0,-0.6875 c 0,-2.08 0.5275,-3.78725 1.5625,-5.15625 1.036,-1.37 2.48,-2.463 4.375,-3.25 1.896,-0.787 4.15225,-1.327249 6.78125,-1.656249 2.628,-0.33 5.5775,-0.5 8.8125,-0.5 z"
   id="path3"
   style="fill:#8dc63f;fill-opacity:1"
   clip-path="none"
   inkscape:connector-curvature="0" />

<path
   d="m 78.407641,53.065995 c -2.224,0 -3.968,-0.275 -5.23,-0.833 -1.264,-0.556 -2.224,-1.276 -2.881,-2.161 -0.657,-0.882 -1.061,-1.856 -1.211,-2.918 -0.152,-1.061 -0.228,-2.123 -0.228,-3.184 V 3.6389992 c 0,-0.556 0.201,-0.9590001 0.606,-1.2130001 0.404,-0.252 0.935,-0.379 1.592,-0.379 0.656,0 1.187,0.127 1.592,0.379 0.403,0.254 0.606,0.6570001 0.606,1.2130001 V 43.969995 c 0,1.77 0.378,3.134 1.137,4.093 0.758,0.96 2.172,1.441 4.246,1.441 h 9.021 c 0.859,0 1.29,0.606 1.29,1.819 0,1.164 -0.431,1.743 -1.29,1.743 h -9.25 z m 0.152,-35.933 c -0.86,0 -1.29,-0.581 -1.29,-1.743 0,-0.556 0.089,-0.998 0.266,-1.327 0.176,-0.328 0.517,-0.493 1.023,-0.493 h 17.663 c 0.505,0 0.846,0.165 1.024,0.493 0.176,0.329 0.266,0.771 0.266,1.327 0,1.163 -0.431,1.743 -1.29,1.743 h -17.662 z"
   id="path7"
   clip-path="none"
   inkscape:connector-curvature="0"
   style="fill:#8dc63f" />
<path
   d="m 110.32264,32.446995 c 0,-1.162 0.403,-1.743 1.213,-1.743 h 27.443 c 0.756,0 1.313,-0.164 1.667,-0.493 0.353,-0.328 0.531,-0.922 0.531,-1.782 v -3.184 c 0,-3.032 -1.379,-5.345 -4.131,-6.937 -2.755,-1.592 -7.191,-2.388 -13.305,-2.388 -6.065,0 -10.487,0.808 -13.267,2.421 -2.78,1.613 -4.17,3.908 -4.17,6.883 v 16.037 c 0,2.975 1.365,5.258 4.095,6.847 2.729,1.588 7.176,2.383 13.342,2.383 2.577,0 4.939,-0.137 7.088,-0.415 2.147,-0.276 3.979,-0.74 5.495,-1.393 1.518,-0.653 2.705,-1.52 3.563,-2.598 0.859,-1.079 1.29,-2.396 1.29,-3.953 v -1.053 c 0,-1.004 0.744,-1.506 2.237,-1.506 1.439,0 2.16,0.505 2.16,1.516 v 1.138 c 0,2.073 -0.506,3.854 -1.519,5.344 -1.013,1.493 -2.456,2.718 -4.329,3.677 -1.875,0.96 -4.153,1.667 -6.835,2.123 -2.685,0.455 -5.721,0.682 -9.112,0.682 -7.696,0 -13.239,-1.087 -16.632,-3.26 -3.393,-2.172 -5.088,-5.255 -5.088,-9.248 v -16.452 c 0,-3.991 1.696,-7.075 5.088,-9.249 3.393,-2.172 8.936,-3.259 16.632,-3.259 7.695,0 13.239,1.087 16.63,3.259 3.394,2.174 5.088,5.258 5.088,9.249 v 3.563 c 0,1.921 -0.477,3.336 -1.426,4.246 -0.953,0.909 -2.651,1.364 -5.092,1.364 h -27.443 c -0.809,0 -1.213,-0.606 -1.213,-1.819 z"
   id="path9"
   clip-path="none"
   inkscape:connector-curvature="0"
   style="fill:#8dc63f" />
<path
   d="m 157.47464,10.840996 c -0.657,0 -1.187,-0.125 -1.592,-0.379 -0.405,-0.252 -0.605,-0.6559998 -0.605,-1.2129998 V 1.6679991 c 0,-0.605999 0.2,-1.0359991 0.605,-1.2889991 0.405,-0.252 0.935,-0.379 1.592,-0.379 1.467,0 2.198,0.557 2.198,1.6679991 v 7.5809971 c 0,1.0619998 -0.731,1.5919998 -2.198,1.5919998 z m 0,42.529999 c -0.657,0 -1.187,-0.114 -1.592,-0.34 -0.405,-0.229 -0.605,-0.671 -0.605,-1.328 v -35.1 c 0,-0.606 0.2,-1.035 0.605,-1.289 0.405,-0.252 0.935,-0.379 1.592,-0.379 1.467,0 2.198,0.557 2.198,1.668 v 35.099 c 0,0.657 -0.188,1.099 -0.568,1.328 -0.379,0.227 -0.922,0.341 -1.63,0.341 z"
   id="path11"
   clip-path="none"
   inkscape:connector-curvature="0"
   style="fill:#8dc63f" />
<path
   d="m 173.46964,13.570995 h 27.291 c 9.25,0 13.875,4.169 13.875,12.508 v 25.624 c 0,0.657 -0.19,1.099 -0.569,1.328 -0.38,0.227 -0.922,0.34 -1.63,0.34 -0.657,0 -1.188,-0.114 -1.593,-0.34 -0.403,-0.229 -0.605,-0.671 -0.605,-1.328 v -25.32 c 0,-3.285 -0.746,-5.648 -2.236,-7.088 -1.492,-1.44 -3.905,-2.161 -7.241,-2.161 h -25.471 v 34.569 c 0,0.657 -0.189,1.099 -0.569,1.328 -0.378,0.227 -0.923,0.34 -1.63,0.34 -0.657,0 -1.188,-0.114 -1.592,-0.34 -0.405,-0.229 -0.605,-0.671 -0.605,-1.328 v -36.01 c -0.001,-1.414 0.857,-2.122 2.575,-2.122 z"
   id="path13"
   clip-path="none"
   inkscape:connector-curvature="0"
   style="fill:#8dc63f" />
<path
   d="m 279.47464,13.342995 c 1.465,0 2.196,0.531 2.196,1.592 v 25.625 c 0,8.338 -4.598,12.507 -13.796,12.507 h -29.491 c -9.248,0 -13.872,-4.168 -13.872,-12.507 v -25.625 c 0,-1.061 0.731,-1.592 2.198,-1.592 0.656,0 1.188,0.127 1.593,0.379 0.403,0.254 0.606,0.658 0.606,1.213 v 25.396 c 0,6.117 3.411,9.174 10.233,9.174 h 28.05 c 3.487,0 6.039,-0.782 7.656,-2.351 1.617,-1.564 2.427,-3.841 2.427,-6.823 v -25.396 c 0,-0.556 0.201,-0.959 0.606,-1.213 0.406,-0.252 0.937,-0.379 1.594,-0.379 z m -26.27,32.221 c -0.695,0 -1.241,-0.127 -1.64,-0.38 -0.396,-0.253 -0.596,-0.684 -0.596,-1.29 v -29.11 c 0,-0.607 0.199,-1.035 0.596,-1.289 0.398,-0.252 0.944,-0.379 1.64,-0.379 1.44,0 2.162,0.557 2.162,1.668 v 29.11 c 0,1.112 -0.722,1.67 -2.162,1.67 z"
   id="path15"
   clip-path="none"
   inkscape:connector-curvature="0"
   style="fill:#8dc63f" />
<path
   d="m 293.87664,13.342995 c 0.656,0 1.188,0.127 1.592,0.379 0.403,0.254 0.606,0.658 0.606,1.213 v 25.625 c 0,5.963 3.413,8.945 10.236,8.945 h 23.727 v -34.57 c 0,-0.556 0.203,-0.959 0.607,-1.213 0.403,-0.252 0.959,-0.379 1.667,-0.379 0.707,0 1.263,0.127 1.668,0.379 0.405,0.254 0.607,0.658 0.607,1.213 v 36.01 c 0,1.415 -0.86,2.122 -2.578,2.122 h -26.457 c -9.25,0 -13.874,-4.168 -13.874,-12.507 v -25.625 c 0,-1.061 0.734,-1.592 2.199,-1.592 z"
   id="path17"
   clip-path="none"
   inkscape:connector-curvature="0"
   style="fill:#8dc63f" />
<path
   d="m 347.32164,53.370995 c -0.709,0 -1.251,-0.114 -1.63,-0.34 -0.379,-0.229 -0.568,-0.671 -0.568,-1.328 v -25.624 c 0,-8.339 4.624,-12.508 13.874,-12.508 h 14.858 c 0.505,0 0.857,0.165 1.061,0.493 0.2,0.329 0.304,0.771 0.304,1.327 0,1.163 -0.455,1.743 -1.364,1.743 h -14.102 c -6.822,0 -10.234,2.983 -10.234,8.945 v 25.624 c 0,0.657 -0.203,1.099 -0.606,1.328 -0.407,0.226 -0.936,0.34 -1.593,0.34 z"
   id="path19"
   clip-path="none"
   inkscape:connector-curvature="0"
   style="fill:#8dc63f" />
<path
   d="m 383.48264,53.370995 c -0.709,0 -1.252,-0.115 -1.632,-0.34 -0.379,-0.229 -0.567,-0.672 -0.567,-1.329 v -38.948 c 0,-8.3509968 4.625,-12.526995 13.873,-12.526995 h 14.556 c 0.858,0 1.288,0.595 1.288,1.7819991 0,1.1880001 -0.43,1.7820001 -1.288,1.7820001 h -14.556 c -3.083,0 -5.434,0.770999 -7.05,2.311998 -1.618,1.542 -2.428,3.878999 -2.428,7.0119978 v 38.587 c 0,0.657 -0.201,1.099 -0.606,1.328 -0.404,0.227 -0.935,0.341 -1.59,0.341 z m 7.504,-36.238 c -0.859,0 -1.287,-0.581 -1.287,-1.743 0,-0.556 0.087,-0.998 0.265,-1.327 0.176,-0.328 0.518,-0.493 1.022,-0.493 h 17.134 c 0.504,0 0.845,0.165 1.023,0.493 0.177,0.329 0.266,0.771 0.266,1.327 0,1.163 -0.431,1.743 -1.289,1.743 h -17.134 z"
   id="path21"
   clip-path="none"
   inkscape:connector-curvature="0"
   style="fill:#8dc63f" />



</svg>